<svg width="1322" height="91" viewBox="0 0 1322 91" fill="none" xmlns="http://www.w3.org/2000/svg">
<path d="M137.992 55V38.2H146.2C148.312 38.2 149.896 38.6 150.952 39.4C152.024 40.2 152.56 41.256 152.56 42.568C152.56 43.448 152.344 44.216 151.912 44.872C151.48 45.512 150.888 46.008 150.136 46.36C149.384 46.712 148.52 46.888 147.544 46.888L148 45.904C149.056 45.904 149.992 46.08 150.808 46.432C151.624 46.768 152.256 47.272 152.704 47.944C153.168 48.616 153.4 49.44 153.4 50.416C153.4 51.856 152.832 52.984 151.696 53.8C150.56 54.6 148.888 55 146.68 55H137.992ZM141.856 52.072H146.392C147.4 52.072 148.16 51.912 148.672 51.592C149.2 51.256 149.464 50.728 149.464 50.008C149.464 49.304 149.2 48.784 148.672 48.448C148.16 48.096 147.4 47.92 146.392 47.92H141.568V45.088H145.72C146.664 45.088 147.384 44.928 147.88 44.608C148.392 44.272 148.648 43.768 148.648 43.096C148.648 42.44 148.392 41.952 147.88 41.632C147.384 41.296 146.664 41.128 145.72 41.128H141.856V52.072ZM156.18 55V42.088H159.756V45.736L159.252 44.68C159.636 43.768 160.252 43.08 161.1 42.616C161.948 42.136 162.98 41.896 164.196 41.896V45.352C164.036 45.336 163.892 45.328 163.764 45.328C163.636 45.312 163.5 45.304 163.356 45.304C162.332 45.304 161.5 45.6 160.86 46.192C160.236 46.768 159.924 47.672 159.924 48.904V55H156.18ZM173.598 55V52.48L173.358 51.928V47.416C173.358 46.616 173.11 45.992 172.614 45.544C172.134 45.096 171.39 44.872 170.382 44.872C169.694 44.872 169.014 44.984 168.342 45.208C167.686 45.416 167.126 45.704 166.662 46.072L165.318 43.456C166.022 42.96 166.87 42.576 167.862 42.304C168.854 42.032 169.862 41.896 170.886 41.896C172.854 41.896 174.382 42.36 175.47 43.288C176.558 44.216 177.102 45.664 177.102 47.632V55H173.598ZM169.662 55.192C168.654 55.192 167.79 55.024 167.07 54.688C166.35 54.336 165.798 53.864 165.414 53.272C165.03 52.68 164.838 52.016 164.838 51.28C164.838 50.512 165.022 49.84 165.39 49.264C165.774 48.688 166.374 48.24 167.19 47.92C168.006 47.584 169.07 47.416 170.382 47.416H173.814V49.6H170.79C169.91 49.6 169.302 49.744 168.966 50.032C168.646 50.32 168.486 50.68 168.486 51.112C168.486 51.592 168.67 51.976 169.038 52.264C169.422 52.536 169.942 52.672 170.598 52.672C171.222 52.672 171.782 52.528 172.278 52.24C172.774 51.936 173.134 51.496 173.358 50.92L173.934 52.648C173.662 53.48 173.166 54.112 172.446 54.544C171.726 54.976 170.798 55.192 169.662 55.192ZM188.438 41.896C189.462 41.896 190.374 42.104 191.174 42.52C191.99 42.92 192.63 43.544 193.095 44.392C193.559 45.224 193.791 46.296 193.791 47.608V55H190.046V48.184C190.046 47.144 189.814 46.376 189.35 45.88C188.902 45.384 188.262 45.136 187.43 45.136C186.838 45.136 186.302 45.264 185.822 45.52C185.358 45.76 184.99 46.136 184.718 46.648C184.462 47.16 184.334 47.816 184.334 48.616V55H180.59V42.088H184.166V45.664L183.494 44.584C183.958 43.72 184.622 43.056 185.486 42.592C186.35 42.128 187.334 41.896 188.438 41.896ZM202.922 55.192C201.706 55.192 200.61 54.92 199.634 54.376C198.658 53.816 197.882 53.04 197.306 52.048C196.746 51.056 196.466 49.888 196.466 48.544C196.466 47.184 196.746 46.008 197.306 45.016C197.882 44.024 198.658 43.256 199.634 42.712C200.61 42.168 201.706 41.896 202.922 41.896C204.01 41.896 204.962 42.136 205.778 42.616C206.594 43.096 207.226 43.824 207.674 44.8C208.122 45.776 208.346 47.024 208.346 48.544C208.346 50.048 208.13 51.296 207.698 52.288C207.266 53.264 206.642 53.992 205.826 54.472C205.026 54.952 204.058 55.192 202.922 55.192ZM203.57 52.12C204.178 52.12 204.73 51.976 205.226 51.688C205.722 51.4 206.114 50.992 206.402 50.464C206.706 49.92 206.858 49.28 206.858 48.544C206.858 47.792 206.706 47.152 206.402 46.624C206.114 46.096 205.722 45.688 205.226 45.4C204.73 45.112 204.178 44.968 203.57 44.968C202.946 44.968 202.386 45.112 201.89 45.4C201.394 45.688 200.994 46.096 200.69 46.624C200.402 47.152 200.258 47.792 200.258 48.544C200.258 49.28 200.402 49.92 200.69 50.464C200.994 50.992 201.394 51.4 201.89 51.688C202.386 51.976 202.946 52.12 203.57 52.12ZM206.954 55V52.36L207.026 48.52L206.786 44.704V37.192H210.53V55H206.954ZM214.359 55V38.2H217.575L227.487 50.296H225.927V38.2H229.767V55H226.575L216.639 42.904H218.199V55H214.359ZM241.498 55V52.48L241.258 51.928V47.416C241.258 46.616 241.01 45.992 240.514 45.544C240.034 45.096 239.29 44.872 238.282 44.872C237.594 44.872 236.914 44.984 236.242 45.208C235.586 45.416 235.026 45.704 234.562 46.072L233.218 43.456C233.922 42.96 234.77 42.576 235.762 42.304C236.754 42.032 237.762 41.896 238.786 41.896C240.754 41.896 242.282 42.36 243.37 43.288C244.458 44.216 245.002 45.664 245.002 47.632V55H241.498ZM237.562 55.192C236.554 55.192 235.69 55.024 234.97 54.688C234.25 54.336 233.698 53.864 233.314 53.272C232.93 52.68 232.738 52.016 232.738 51.28C232.738 50.512 232.922 49.84 233.29 49.264C233.674 48.688 234.274 48.24 235.09 47.92C235.906 47.584 236.97 47.416 238.282 47.416H241.714V49.6H238.69C237.81 49.6 237.202 49.744 236.866 50.032C236.546 50.32 236.386 50.68 236.386 51.112C236.386 51.592 236.57 51.976 236.938 52.264C237.322 52.536 237.842 52.672 238.498 52.672C239.122 52.672 239.682 52.528 240.178 52.24C240.674 51.936 241.034 51.496 241.258 50.92L241.834 52.648C241.562 53.48 241.066 54.112 240.346 54.544C239.626 54.976 238.698 55.192 237.562 55.192ZM265.026 41.896C266.05 41.896 266.954 42.104 267.738 42.52C268.538 42.92 269.162 43.544 269.61 44.392C270.074 45.224 270.306 46.296 270.306 47.608V55H266.562V48.184C266.562 47.144 266.346 46.376 265.914 45.88C265.482 45.384 264.874 45.136 264.09 45.136C263.546 45.136 263.058 45.264 262.626 45.52C262.194 45.76 261.858 46.128 261.618 46.624C261.378 47.12 261.258 47.752 261.258 48.52V55H257.514V48.184C257.514 47.144 257.298 46.376 256.866 45.88C256.45 45.384 255.85 45.136 255.066 45.136C254.522 45.136 254.034 45.264 253.602 45.52C253.17 45.76 252.834 46.128 252.594 46.624C252.354 47.12 252.234 47.752 252.234 48.52V55H248.49V42.088H252.066V45.616L251.394 44.584C251.842 43.704 252.474 43.04 253.29 42.592C254.122 42.128 255.066 41.896 256.122 41.896C257.306 41.896 258.338 42.2 259.218 42.808C260.114 43.4 260.706 44.312 260.994 45.544L259.674 45.184C260.106 44.176 260.794 43.376 261.738 42.784C262.698 42.192 263.794 41.896 265.026 41.896ZM280.264 55.192C278.792 55.192 277.496 54.904 276.376 54.328C275.272 53.752 274.416 52.968 273.808 51.976C273.2 50.968 272.896 49.824 272.896 48.544C272.896 47.248 273.192 46.104 273.784 45.112C274.392 44.104 275.216 43.32 276.256 42.76C277.296 42.184 278.472 41.896 279.784 41.896C281.048 41.896 282.184 42.168 283.192 42.712C284.216 43.24 285.024 44.008 285.616 45.016C286.208 46.008 286.504 47.2 286.504 48.592C286.504 48.736 286.496 48.904 286.48 49.096C286.464 49.272 286.448 49.44 286.432 49.6H275.944V47.416H284.464L283.024 48.064C283.024 47.392 282.888 46.808 282.616 46.312C282.344 45.816 281.968 45.432 281.488 45.16C281.008 44.872 280.448 44.728 279.808 44.728C279.168 44.728 278.6 44.872 278.104 45.16C277.624 45.432 277.248 45.824 276.976 46.336C276.704 46.832 276.568 47.424 276.568 48.112V48.688C276.568 49.392 276.72 50.016 277.024 50.56C277.344 51.088 277.784 51.496 278.344 51.784C278.92 52.056 279.592 52.192 280.36 52.192C281.048 52.192 281.648 52.088 282.16 51.88C282.688 51.672 283.168 51.36 283.6 50.944L285.592 53.104C285 53.776 284.256 54.296 283.36 54.664C282.464 55.016 281.432 55.192 280.264 55.192Z" fill="white"/>
<g clip-path="url(#clip0_2638_5167)">
<g clip-path="url(#clip1_2638_5167)">
<g clip-path="url(#clip2_2638_5167)">
<path d="M371.391 40.214H373.575V50H371.391V46.15H367.499V50H365.315V40.214H367.499V44.302H371.391V40.214ZM377.649 46.234C377.649 46.85 377.822 47.354 378.167 47.746C378.522 48.1287 378.97 48.32 379.511 48.32C380.062 48.32 380.51 48.1287 380.855 47.746C381.21 47.354 381.387 46.85 381.387 46.234C381.387 45.618 381.21 45.114 380.855 44.722C380.51 44.33 380.062 44.134 379.511 44.134C378.97 44.134 378.522 44.33 378.167 44.722C377.822 45.114 377.649 45.618 377.649 46.234ZM383.501 46.234C383.501 47.326 383.123 48.2453 382.367 48.992C381.611 49.7387 380.659 50.112 379.511 50.112C378.373 50.112 377.425 49.7387 376.669 48.992C375.913 48.2453 375.535 47.326 375.535 46.234C375.535 45.142 375.913 44.2227 376.669 43.476C377.425 42.72 378.373 42.342 379.511 42.342C380.659 42.342 381.611 42.72 382.367 43.476C383.123 44.2227 383.501 45.142 383.501 46.234ZM392.177 45.94V50H390.063V45.884C390.063 45.2867 389.97 44.848 389.783 44.568C389.606 44.288 389.312 44.148 388.901 44.148C388.5 44.148 388.14 44.302 387.823 44.61C387.515 44.9087 387.361 45.352 387.361 45.94V50H385.261V42.468H387.361V43.322C387.94 42.6687 388.602 42.342 389.349 42.342C389.825 42.342 390.254 42.482 390.637 42.762C391.029 43.042 391.323 43.3827 391.519 43.784C391.808 43.3267 392.196 42.972 392.681 42.72C393.176 42.468 393.67 42.342 394.165 42.342C395.052 42.342 395.766 42.608 396.307 43.14C396.848 43.6627 397.119 44.4233 397.119 45.422V50H395.005V45.884C395.005 44.7267 394.58 44.148 393.731 44.148C393.311 44.148 392.947 44.302 392.639 44.61C392.331 44.9087 392.177 45.352 392.177 45.94ZM405.753 48.908C404.903 49.7107 403.905 50.112 402.757 50.112C401.618 50.112 400.675 49.762 399.929 49.062C399.182 48.3527 398.809 47.4053 398.809 46.22C398.809 45.0347 399.187 44.092 399.943 43.392C400.708 42.692 401.609 42.342 402.645 42.342C403.681 42.342 404.558 42.6547 405.277 43.28C406.005 43.9053 406.369 44.764 406.369 45.856V46.976H400.881C400.946 47.3867 401.161 47.7227 401.525 47.984C401.889 48.2453 402.299 48.376 402.757 48.376C403.494 48.376 404.101 48.1287 404.577 47.634L405.753 48.908ZM404.241 45.478C404.194 45.03 404.026 44.6847 403.737 44.442C403.447 44.1993 403.093 44.078 402.673 44.078C402.262 44.078 401.884 44.204 401.539 44.456C401.193 44.708 400.993 45.0487 400.937 45.478H404.241Z" fill="white"/>
</g>
</g>
<g clip-path="url(#clip3_2638_5167)">
<g clip-path="url(#clip4_2638_5167)">
<path d="M433.159 40.214C434.661 40.214 435.753 40.508 436.435 41.096C437.125 41.6747 437.471 42.5707 437.471 43.784C437.471 44.988 437.116 45.87 436.407 46.43C435.707 46.99 434.633 47.27 433.187 47.27H431.885V50H429.701V40.214H433.159ZM433.355 45.38C434.083 45.38 434.577 45.2353 434.839 44.946C435.1 44.6473 435.231 44.218 435.231 43.658C435.231 43.0887 435.058 42.6873 434.713 42.454C434.377 42.2113 433.849 42.09 433.131 42.09H431.885V45.38H433.355ZM443.127 44.316C442.502 44.316 442.035 44.54 441.727 44.988C441.419 45.4267 441.265 46.01 441.265 46.738V50H439.165V42.468H441.265V43.462C441.536 43.154 441.872 42.8927 442.273 42.678C442.684 42.4633 443.099 42.3513 443.519 42.342L443.533 44.316H443.127ZM446.692 46.234C446.692 46.85 446.864 47.354 447.21 47.746C447.564 48.1287 448.012 48.32 448.554 48.32C449.104 48.32 449.552 48.1287 449.898 47.746C450.252 47.354 450.43 46.85 450.43 46.234C450.43 45.618 450.252 45.114 449.898 44.722C449.552 44.33 449.104 44.134 448.554 44.134C448.012 44.134 447.564 44.33 447.21 44.722C446.864 45.114 446.692 45.618 446.692 46.234ZM452.544 46.234C452.544 47.326 452.166 48.2453 451.41 48.992C450.654 49.7387 449.702 50.112 448.554 50.112C447.415 50.112 446.468 49.7387 445.712 48.992C444.956 48.2453 444.578 47.326 444.578 46.234C444.578 45.142 444.956 44.2227 445.712 43.476C446.468 42.72 447.415 42.342 448.554 42.342C449.702 42.342 450.654 42.72 451.41 43.476C452.166 44.2227 452.544 45.142 452.544 46.234ZM457.314 50.112C456.427 50.112 455.634 49.734 454.934 48.978C454.234 48.222 453.884 47.284 453.884 46.164C453.884 45.044 454.224 44.1293 454.906 43.42C455.587 42.7013 456.385 42.342 457.3 42.342C458.214 42.342 458.961 42.664 459.54 43.308V39.612H461.64V50H459.54V49.006C458.952 49.7433 458.21 50.112 457.314 50.112ZM455.998 46.248C455.998 46.8547 456.18 47.354 456.544 47.746C456.908 48.1287 457.332 48.32 457.818 48.32C458.303 48.32 458.714 48.1287 459.05 47.746C459.395 47.354 459.568 46.8547 459.568 46.248C459.568 45.632 459.395 45.1233 459.05 44.722C458.714 44.3113 458.298 44.106 457.804 44.106C457.309 44.106 456.884 44.3113 456.53 44.722C456.175 45.1327 455.998 45.6413 455.998 46.248ZM468.686 46.528V42.468H470.8V50H468.686V49.006C468.163 49.7433 467.486 50.112 466.656 50.112C465.834 50.112 465.144 49.8553 464.584 49.342C464.024 48.8193 463.744 48.0493 463.744 47.032V42.468H465.858V46.57C465.858 47.7273 466.282 48.306 467.132 48.306C467.552 48.306 467.916 48.1567 468.224 47.858C468.532 47.55 468.686 47.1067 468.686 46.528ZM476.595 48.25C477.295 48.25 477.925 47.9 478.485 47.2L479.731 48.6C478.76 49.608 477.71 50.112 476.581 50.112C475.452 50.112 474.495 49.7573 473.711 49.048C472.936 48.3293 472.549 47.396 472.549 46.248C472.549 45.0907 472.941 44.1527 473.725 43.434C474.518 42.706 475.456 42.342 476.539 42.342C477.08 42.342 477.626 42.454 478.177 42.678C478.737 42.902 479.227 43.2333 479.647 43.672L478.555 45.1C478.312 44.8107 478.014 44.5867 477.659 44.428C477.314 44.2693 476.968 44.19 476.623 44.19C476.072 44.19 475.596 44.372 475.195 44.736C474.803 45.0907 474.607 45.59 474.607 46.234C474.607 46.8687 474.803 47.3633 475.195 47.718C475.596 48.0727 476.063 48.25 476.595 48.25ZM483.837 43.98V47.354C483.837 47.6433 483.912 47.872 484.061 48.04C484.211 48.1987 484.388 48.278 484.593 48.278C484.985 48.278 485.317 48.1007 485.587 47.746L486.371 49.216C485.718 49.8133 485.027 50.112 484.299 50.112C483.581 50.112 482.969 49.874 482.465 49.398C481.971 48.922 481.723 48.2733 481.723 47.452V43.98H480.841V42.468H481.723V40.214H483.837V42.468H485.657V43.98H483.837Z" fill="white"/>
</g>
</g>
<g clip-path="url(#clip5_2638_5167)">
<g clip-path="url(#clip6_2638_5167)">
<path d="M513.145 40.214C514.648 40.214 515.74 40.508 516.421 41.096C517.112 41.6747 517.457 42.5707 517.457 43.784C517.457 44.988 517.102 45.87 516.393 46.43C515.693 46.99 514.62 47.27 513.173 47.27H511.871V50H509.687V40.214H513.145ZM513.341 45.38C514.069 45.38 514.564 45.2353 514.825 44.946C515.086 44.6473 515.217 44.218 515.217 43.658C515.217 43.0887 515.044 42.6873 514.699 42.454C514.363 42.2113 513.836 42.09 513.117 42.09H511.871V45.38H513.341ZM523.114 44.316C522.488 44.316 522.022 44.54 521.714 44.988C521.406 45.4267 521.252 46.01 521.252 46.738V50H519.152V42.468H521.252V43.462C521.522 43.154 521.858 42.8927 522.26 42.678C522.67 42.4633 523.086 42.3513 523.506 42.342L523.52 44.316H523.114ZM527.207 50H525.107V42.468H527.207V50ZM525.275 41.516C525.042 41.2733 524.925 40.9793 524.925 40.634C524.925 40.2887 525.042 39.9993 525.275 39.766C525.518 39.5233 525.812 39.402 526.157 39.402C526.503 39.402 526.792 39.5233 527.025 39.766C527.268 39.9993 527.389 40.2887 527.389 40.634C527.389 40.9793 527.268 41.2733 527.025 41.516C526.792 41.7493 526.503 41.866 526.157 41.866C525.812 41.866 525.518 41.7493 525.275 41.516ZM533.007 48.25C533.707 48.25 534.337 47.9 534.897 47.2L536.143 48.6C535.173 49.608 534.123 50.112 532.993 50.112C531.864 50.112 530.907 49.7573 530.123 49.048C529.349 48.3293 528.961 47.396 528.961 46.248C528.961 45.0907 529.353 44.1527 530.137 43.434C530.931 42.706 531.869 42.342 532.951 42.342C533.493 42.342 534.039 42.454 534.589 42.678C535.149 42.902 535.639 43.2333 536.059 43.672L534.967 45.1C534.725 44.8107 534.426 44.5867 534.071 44.428C533.726 44.2693 533.381 44.19 533.035 44.19C532.485 44.19 532.009 44.372 531.607 44.736C531.215 45.0907 531.019 45.59 531.019 46.234C531.019 46.8687 531.215 47.3633 531.607 47.718C532.009 48.0727 532.475 48.25 533.007 48.25ZM539.844 50H537.744V42.468H539.844V50ZM537.912 41.516C537.678 41.2733 537.562 40.9793 537.562 40.634C537.562 40.2887 537.678 39.9993 537.912 39.766C538.154 39.5233 538.448 39.402 538.794 39.402C539.139 39.402 539.428 39.5233 539.662 39.766C539.904 39.9993 540.026 40.2887 540.026 40.634C540.026 40.9793 539.904 41.2733 539.662 41.516C539.428 41.7493 539.139 41.866 538.794 41.866C538.448 41.866 538.154 41.7493 537.912 41.516ZM544.132 45.8V50H542.032V42.468H544.132V43.308C544.766 42.664 545.48 42.342 546.274 42.342C547.067 42.342 547.73 42.622 548.262 43.182C548.803 43.742 549.074 44.4887 549.074 45.422V50H546.974V45.744C546.974 44.5867 546.549 44.008 545.7 44.008C545.28 44.008 544.911 44.162 544.594 44.47C544.286 44.7687 544.132 45.212 544.132 45.8ZM556.451 46.08C556.451 45.4733 556.283 44.9973 555.947 44.652C555.611 44.3067 555.196 44.134 554.701 44.134C554.206 44.134 553.777 44.3067 553.413 44.652C553.058 44.9973 552.881 45.4687 552.881 46.066C552.881 46.6633 553.054 47.1487 553.399 47.522C553.754 47.886 554.183 48.068 554.687 48.068C555.191 48.068 555.611 47.886 555.947 47.522C556.283 47.158 556.451 46.6773 556.451 46.08ZM556.745 48.726C556.082 49.4633 555.256 49.832 554.267 49.832C553.287 49.832 552.456 49.5007 551.775 48.838C551.103 48.166 550.767 47.2747 550.767 46.164C550.767 45.044 551.112 44.1293 551.803 43.42C552.503 42.7013 553.301 42.342 554.197 42.342C555.093 42.342 555.835 42.7107 556.423 43.448V42.454H558.523V49.02C558.523 49.692 558.406 50.2893 558.173 50.812C557.94 51.3347 557.627 51.7453 557.235 52.044C556.46 52.66 555.546 52.968 554.491 52.968C553.931 52.968 553.357 52.8747 552.769 52.688C552.19 52.5107 551.682 52.254 551.243 51.918L552.055 50.336C552.746 50.8587 553.474 51.12 554.239 51.12C555.014 51.12 555.625 50.9287 556.073 50.546C556.521 50.1633 556.745 49.5567 556.745 48.726Z" fill="white"/>
</g>
</g>
<g clip-path="url(#clip7_2638_5167)">
<g clip-path="url(#clip8_2638_5167)">
<path d="M586.763 48.068C587.836 48.068 588.714 47.6433 589.395 46.794L590.795 48.236C589.684 49.4867 588.373 50.112 586.861 50.112C585.358 50.112 584.117 49.636 583.137 48.684C582.166 47.732 581.681 46.5327 581.681 45.086C581.681 43.63 582.176 42.4167 583.165 41.446C584.164 40.4753 585.382 39.99 586.819 39.99C588.424 39.99 589.768 40.6013 590.851 41.824L589.493 43.364C588.802 42.5053 587.944 42.076 586.917 42.076C586.096 42.076 585.391 42.3467 584.803 42.888C584.224 43.42 583.935 44.1433 583.935 45.058C583.935 45.9633 584.21 46.6913 584.761 47.242C585.312 47.7927 585.979 48.068 586.763 48.068ZM593.892 46.234C593.892 46.85 594.065 47.354 594.41 47.746C594.765 48.1287 595.213 48.32 595.754 48.32C596.305 48.32 596.753 48.1287 597.098 47.746C597.453 47.354 597.63 46.85 597.63 46.234C597.63 45.618 597.453 45.114 597.098 44.722C596.753 44.33 596.305 44.134 595.754 44.134C595.213 44.134 594.765 44.33 594.41 44.722C594.065 45.114 593.892 45.618 593.892 46.234ZM599.744 46.234C599.744 47.326 599.366 48.2453 598.61 48.992C597.854 49.7387 596.902 50.112 595.754 50.112C594.615 50.112 593.668 49.7387 592.912 48.992C592.156 48.2453 591.778 47.326 591.778 46.234C591.778 45.142 592.156 44.2227 592.912 43.476C593.668 42.72 594.615 42.342 595.754 42.342C596.902 42.342 597.854 42.72 598.61 43.476C599.366 44.2227 599.744 45.142 599.744 46.234ZM603.604 45.8V50H601.504V42.468H603.604V43.308C604.239 42.664 604.953 42.342 605.746 42.342C606.539 42.342 607.202 42.622 607.734 43.182C608.275 43.742 608.546 44.4887 608.546 45.422V50H606.446V45.744C606.446 44.5867 606.021 44.008 605.172 44.008C604.752 44.008 604.383 44.162 604.066 44.47C603.758 44.7687 603.604 45.212 603.604 45.8ZM613.042 43.98V47.354C613.042 47.6433 613.117 47.872 613.266 48.04C613.415 48.1987 613.593 48.278 613.798 48.278C614.19 48.278 614.521 48.1007 614.792 47.746L615.576 49.216C614.923 49.8133 614.232 50.112 613.504 50.112C612.785 50.112 612.174 49.874 611.67 49.398C611.175 48.922 610.928 48.2733 610.928 47.452V43.98H610.046V42.468H610.928V40.214H613.042V42.468H614.862V43.98H613.042ZM623.3 50H621.326V49.09C620.785 49.7713 620.113 50.112 619.31 50.112C618.517 50.112 617.849 49.8833 617.308 49.426C616.767 48.9593 616.496 48.3433 616.496 47.578C616.496 46.8033 616.776 46.2247 617.336 45.842C617.896 45.4593 618.661 45.268 619.632 45.268H621.2V45.226C621.2 44.4233 620.775 44.022 619.926 44.022C619.562 44.022 619.175 44.0967 618.764 44.246C618.363 44.386 618.022 44.5633 617.742 44.778L616.804 43.42C617.793 42.7013 618.923 42.342 620.192 42.342C621.107 42.342 621.853 42.5707 622.432 43.028C623.011 43.4853 623.3 44.2087 623.3 45.198V50ZM621.186 47.13V46.766H619.87C619.03 46.766 618.61 47.0273 618.61 47.55C618.61 47.8207 618.708 48.0307 618.904 48.18C619.109 48.32 619.399 48.39 619.772 48.39C620.145 48.39 620.472 48.278 620.752 48.054C621.041 47.8207 621.186 47.5127 621.186 47.13ZM629.027 48.25C629.727 48.25 630.357 47.9 630.917 47.2L632.163 48.6C631.192 49.608 630.142 50.112 629.013 50.112C627.883 50.112 626.927 49.7573 626.143 49.048C625.368 48.3293 624.981 47.396 624.981 46.248C624.981 45.0907 625.373 44.1527 626.157 43.434C626.95 42.706 627.888 42.342 628.971 42.342C629.512 42.342 630.058 42.454 630.609 42.678C631.169 42.902 631.659 43.2333 632.079 43.672L630.987 45.1C630.744 44.8107 630.445 44.5867 630.091 44.428C629.745 44.2693 629.4 44.19 629.055 44.19C628.504 44.19 628.028 44.372 627.627 44.736C627.235 45.0907 627.039 45.59 627.039 46.234C627.039 46.8687 627.235 47.3633 627.627 47.718C628.028 48.0727 628.495 48.25 629.027 48.25ZM636.269 43.98V47.354C636.269 47.6433 636.344 47.872 636.493 48.04C636.642 48.1987 636.82 48.278 637.025 48.278C637.417 48.278 637.748 48.1007 638.019 47.746L638.803 49.216C638.15 49.8133 637.459 50.112 636.731 50.112C636.012 50.112 635.401 49.874 634.897 49.398C634.402 48.922 634.155 48.2733 634.155 47.452V43.98H633.273V42.468H634.155V40.214H636.269V42.468H638.089V43.98H636.269Z" fill="white"/>
</g>
</g>
</g>
<g clip-path="url(#clip9_2638_5167)">
<g clip-path="url(#clip10_2638_5167)">
<path d="M879.087 50V40.2H881.355V48.152H886.269V50H879.087ZM891.125 50.112C890.322 50.112 889.608 49.944 888.983 49.608C888.367 49.272 887.877 48.8147 887.513 48.236C887.158 47.648 886.981 46.9807 886.981 46.234C886.981 45.478 887.158 44.8107 887.513 44.232C887.877 43.644 888.367 43.1867 888.983 42.86C889.608 42.524 890.322 42.356 891.125 42.356C891.918 42.356 892.627 42.524 893.253 42.86C893.878 43.1867 894.368 43.6393 894.723 44.218C895.077 44.7967 895.255 45.4687 895.255 46.234C895.255 46.9807 895.077 47.648 894.723 48.236C894.368 48.8147 893.878 49.272 893.253 49.608C892.627 49.944 891.918 50.112 891.125 50.112ZM891.125 48.32C891.489 48.32 891.815 48.236 892.105 48.068C892.394 47.9 892.623 47.662 892.791 47.354C892.959 47.0367 893.043 46.6633 893.043 46.234C893.043 45.7953 892.959 45.422 892.791 45.114C892.623 44.806 892.394 44.568 892.105 44.4C891.815 44.232 891.489 44.148 891.125 44.148C890.761 44.148 890.434 44.232 890.145 44.4C889.855 44.568 889.622 44.806 889.445 45.114C889.277 45.422 889.193 45.7953 889.193 46.234C889.193 46.6633 889.277 47.0367 889.445 47.354C889.622 47.662 889.855 47.9 890.145 48.068C890.434 48.236 890.761 48.32 891.125 48.32ZM900.457 52.828C899.747 52.828 899.061 52.7393 898.399 52.562C897.745 52.394 897.199 52.1373 896.761 51.792L897.629 50.224C897.946 50.4853 898.347 50.6907 898.833 50.84C899.327 50.9987 899.813 51.078 900.289 51.078C901.063 51.078 901.623 50.9053 901.969 50.56C902.323 50.2147 902.501 49.7013 902.501 49.02V47.886L902.641 45.996L902.613 44.092V42.468H904.685V48.74C904.685 50.14 904.321 51.1713 903.593 51.834C902.865 52.4967 901.819 52.828 900.457 52.828ZM900.121 49.636C899.421 49.636 898.786 49.4867 898.217 49.188C897.657 48.88 897.204 48.4553 896.859 47.914C896.523 47.3633 896.355 46.724 896.355 45.996C896.355 45.2587 896.523 44.6193 896.859 44.078C897.204 43.5273 897.657 43.1027 898.217 42.804C898.786 42.5053 899.421 42.356 900.121 42.356C900.755 42.356 901.315 42.4867 901.801 42.748C902.286 43 902.664 43.3967 902.935 43.938C903.205 44.47 903.341 45.156 903.341 45.996C903.341 46.8267 903.205 47.5127 902.935 48.054C902.664 48.586 902.286 48.9827 901.801 49.244C901.315 49.5053 900.755 49.636 900.121 49.636ZM900.555 47.844C900.937 47.844 901.278 47.7693 901.577 47.62C901.875 47.4613 902.109 47.242 902.277 46.962C902.445 46.682 902.529 46.36 902.529 45.996C902.529 45.6227 902.445 45.3007 902.277 45.03C902.109 44.75 901.875 44.5353 901.577 44.386C901.278 44.2273 900.937 44.148 900.555 44.148C900.172 44.148 899.831 44.2273 899.533 44.386C899.234 44.5353 898.996 44.75 898.819 45.03C898.651 45.3007 898.567 45.6227 898.567 45.996C898.567 46.36 898.651 46.682 898.819 46.962C898.996 47.242 899.234 47.4613 899.533 47.62C899.831 47.7693 900.172 47.844 900.555 47.844ZM906.917 50V42.468H909.101V50H906.917ZM908.009 41.418C907.608 41.418 907.281 41.3013 907.029 41.068C906.777 40.8347 906.651 40.5453 906.651 40.2C906.651 39.8547 906.777 39.5653 907.029 39.332C907.281 39.0987 907.608 38.982 908.009 38.982C908.411 38.982 908.737 39.094 908.989 39.318C909.241 39.5327 909.367 39.8127 909.367 40.158C909.367 40.522 909.241 40.8253 908.989 41.068C908.747 41.3013 908.42 41.418 908.009 41.418ZM915.906 42.356C916.504 42.356 917.036 42.4773 917.502 42.72C917.978 42.9533 918.352 43.3173 918.622 43.812C918.893 44.2973 919.028 44.9227 919.028 45.688V50H916.844V46.024C916.844 45.4173 916.709 44.9693 916.438 44.68C916.177 44.3907 915.804 44.246 915.318 44.246C914.973 44.246 914.66 44.3207 914.38 44.47C914.11 44.61 913.895 44.8293 913.736 45.128C913.587 45.4267 913.512 45.8093 913.512 46.276V50H911.328V42.468H913.414V44.554L913.022 43.924C913.293 43.42 913.68 43.0327 914.184 42.762C914.688 42.4913 915.262 42.356 915.906 42.356Z" fill="white"/>
</g>
</g>
<path d="M965 24C965 21.2386 967.239 19 970 19H1097C1099.76 19 1102 21.2386 1102 24V66C1102 68.7614 1099.76 71 1097 71H970C967.239 71 965 68.7614 965 66V24Z" fill="#96BB7C"/>
<path d="M991.568 42.09V40.214H996.664V46.598C996.664 47.7647 996.361 48.6373 995.754 49.216C995.157 49.7947 994.387 50.084 993.444 50.084C992.268 50.084 991.241 49.6313 990.364 48.726L991.498 47.158C992.086 47.7927 992.702 48.11 993.346 48.11C993.654 48.11 993.915 47.9933 994.13 47.76C994.354 47.5173 994.466 47.158 994.466 46.682V42.09H991.568ZM1006.67 45.058C1006.67 44.1807 1006.39 43.434 1005.83 42.818C1005.27 42.202 1004.58 41.894 1003.76 41.894C1002.95 41.894 1002.26 42.202 1001.7 42.818C1001.14 43.434 1000.86 44.1807 1000.86 45.058C1000.86 45.926 1001.14 46.668 1001.7 47.284C1002.26 47.8907 1002.95 48.194 1003.76 48.194C1004.58 48.194 1005.27 47.8907 1005.83 47.284C1006.39 46.668 1006.67 45.926 1006.67 45.058ZM1007.42 48.656C1006.43 49.6173 1005.21 50.098 1003.76 50.098C1002.31 50.098 1001.1 49.6173 1000.11 48.656C999.118 47.6853 998.623 46.4813 998.623 45.044C998.623 43.6067 999.118 42.4073 1000.11 41.446C1001.1 40.4753 1002.31 39.99 1003.76 39.99C1005.21 39.99 1006.43 40.4753 1007.42 41.446C1008.4 42.4073 1008.9 43.6067 1008.9 45.044C1008.9 46.4813 1008.4 47.6853 1007.42 48.656ZM1010.95 40.214H1013.13V50H1010.95V40.214ZM1022.59 40.214H1024.77V50H1022.59L1017.93 43.868V50H1015.74V40.214H1017.79L1022.59 46.514V40.214ZM1033.87 47.48C1034.23 47.928 1034.72 48.152 1035.34 48.152C1035.95 48.152 1036.44 47.928 1036.79 47.48C1037.16 47.0227 1037.34 46.402 1037.34 45.618V40.214H1039.52V45.688C1039.52 47.1067 1039.13 48.1987 1038.35 48.964C1037.56 49.72 1036.56 50.098 1035.34 50.098C1034.12 50.098 1033.11 49.7153 1032.31 48.95C1031.53 48.1847 1031.14 47.0973 1031.14 45.688V40.214H1033.32V45.618C1033.32 46.402 1033.5 47.0227 1033.87 47.48ZM1045.14 41.908C1044.78 41.908 1044.49 41.9967 1044.27 42.174C1044.07 42.342 1043.97 42.5707 1043.97 42.86C1043.97 43.14 1044.09 43.364 1044.34 43.532C1044.61 43.7 1045.2 43.9007 1046.12 44.134C1047.06 44.358 1047.78 44.6987 1048.29 45.156C1048.81 45.6133 1049.06 46.2807 1049.06 47.158C1049.06 48.0353 1048.73 48.7493 1048.07 49.3C1047.41 49.8413 1046.55 50.112 1045.48 50.112C1043.93 50.112 1042.53 49.538 1041.29 48.39L1042.59 46.794C1043.65 47.718 1044.62 48.18 1045.52 48.18C1045.92 48.18 1046.23 48.096 1046.46 47.928C1046.69 47.7507 1046.81 47.5173 1046.81 47.228C1046.81 46.9293 1046.69 46.696 1046.44 46.528C1046.2 46.3507 1045.72 46.1733 1045 45.996C1043.86 45.7253 1043.03 45.3753 1042.5 44.946C1041.97 44.5073 1041.71 43.826 1041.71 42.902C1041.71 41.9687 1042.04 41.25 1042.71 40.746C1043.38 40.242 1044.21 39.99 1045.21 39.99C1045.87 39.99 1046.52 40.102 1047.17 40.326C1047.83 40.55 1048.39 40.8673 1048.88 41.278L1047.77 42.874C1046.92 42.23 1046.05 41.908 1045.14 41.908Z" fill="white"/>
<g clip-path="url(#clip11_2638_5167)">
<path fill-rule="evenodd" clip-rule="evenodd" d="M1065 45C1065 44.8106 1065.08 44.6289 1065.22 44.495C1065.36 44.3611 1065.55 44.2858 1065.75 44.2858H1074.44L1071.22 41.2207C1071.08 41.0866 1071 40.9047 1071 40.7151C1071 40.5254 1071.08 40.3435 1071.22 40.2094C1071.36 40.0753 1071.55 40 1071.75 40C1071.95 40 1072.14 40.0753 1072.28 40.2094L1076.78 44.4944C1076.85 44.5607 1076.9 44.6395 1076.94 44.7263C1076.98 44.8131 1077 44.9061 1077 45C1077 45.0939 1076.98 45.1869 1076.94 45.2737C1076.9 45.3605 1076.85 45.4393 1076.78 45.5056L1072.28 49.7906C1072.14 49.9247 1071.95 50 1071.75 50C1071.55 50 1071.36 49.9247 1071.22 49.7906C1071.08 49.6565 1071 49.4746 1071 49.2849C1071 49.0953 1071.08 48.9134 1071.22 48.7793L1074.44 45.7142H1065.75C1065.55 45.7142 1065.36 45.6389 1065.22 45.505C1065.08 45.3711 1065 45.1894 1065 45Z" fill="white"/>
</g>
<defs>
<clipPath id="clip0_2638_5167">
<rect width="275" height="24" fill="white" transform="translate(364 33)"/>
</clipPath>
<clipPath id="clip1_2638_5167">
<rect width="43" height="24" fill="white" transform="translate(364 33)"/>
</clipPath>
<clipPath id="clip2_2638_5167">
<rect width="43" height="24" fill="white" transform="translate(364 33)"/>
</clipPath>
<clipPath id="clip3_2638_5167">
<rect width="59" height="24" fill="white" transform="translate(428 33)"/>
</clipPath>
<clipPath id="clip4_2638_5167">
<rect width="59" height="24" fill="white" transform="translate(428 33)"/>
</clipPath>
<clipPath id="clip5_2638_5167">
<rect width="52" height="24" fill="white" transform="translate(508 33)"/>
</clipPath>
<clipPath id="clip6_2638_5167">
<rect width="52" height="24" fill="white" transform="translate(508 33)"/>
</clipPath>
<clipPath id="clip7_2638_5167">
<rect width="58" height="24" fill="white" transform="translate(581 33)"/>
</clipPath>
<clipPath id="clip8_2638_5167">
<rect width="58" height="24" fill="white" transform="translate(581 33)"/>
</clipPath>
<clipPath id="clip9_2638_5167">
<rect width="41" height="22" fill="white" transform="translate(879 34)"/>
</clipPath>
<clipPath id="clip10_2638_5167">
<rect width="41" height="22" fill="white" transform="translate(879 34)"/>
</clipPath>
<clipPath id="clip11_2638_5167">
<rect width="12" height="10" fill="white" transform="translate(1065 40)"/>
</clipPath>
</defs>
</svg>
